<svg width="245" height="568" viewBox="0 0 245 568" fill="none" xmlns="http://www.w3.org/2000/svg">
<g clip-path="url(#clip0)">
<rect width="245" height="568" fill="white"/>
<path d="M17.86 107.24L66.46 75.32V94.28L32.62 115.16L66.46 136.28V154.28L17.86 122.36H-18.5V107.24H17.86ZM-18.5 202.993L-18.5 189.313H-9.26V189.073C-12.14 187.713 -14.66 185.633 -16.82 182.833C-18.9 180.033 -19.94 176.233 -19.94 171.433C-19.94 167.593 -19.34 164.313 -18.14 161.593C-16.86 158.953 -15.18 156.793 -13.1 155.113C-10.94 153.433 -8.5 152.233 -5.78 151.513C-3.06 150.793 -0.22 150.433 2.74 150.433H39.1V164.833H9.94C8.34 164.833 6.54 164.913 4.54 165.073C2.62 165.233 0.780002 165.633 -0.979998 166.273C-2.66 166.993 -4.1 168.033 -5.3 169.393C-6.42 170.833 -6.98 172.833 -6.98 175.393C-6.98 177.793 -6.58 179.793 -5.78 181.393C-4.98 183.073 -3.9 184.433 -2.54 185.473C-1.18 186.593 0.380001 187.393 2.14 187.873C3.9 188.353 5.74 188.593 7.66 188.593H39.1V202.993H-18.5ZM39.1 219.58V233.98H-18.5V219.58H39.1ZM58.66 217.54C60.98 217.54 62.98 218.38 64.66 220.06C66.42 221.82 67.3 224.02 67.3 226.66C67.3 229.3 66.46 231.5 64.78 233.26C63.18 235.1 61.14 236.02 58.66 236.02C56.18 236.02 54.1 235.1 52.42 233.26C50.82 231.5 50.02 229.3 50.02 226.66C50.02 224.02 50.86 221.82 52.54 220.06C54.3 218.38 56.34 217.54 58.66 217.54ZM39.1 250.512L39.1 264.192H30.46V264.432C33.98 266.512 36.54 269.312 38.14 272.832C39.74 276.352 40.54 280.152 40.54 284.232C40.54 288.632 39.74 292.592 38.14 296.112C36.62 299.632 34.5 302.632 31.78 305.112C29.06 307.592 25.86 309.472 22.18 310.752C18.5 312.032 14.54 312.672 10.3 312.672C6.06 312.672 2.1 311.992 -1.58 310.632C-5.26 309.272 -8.46 307.352 -11.18 304.872C-13.9 302.472 -16.06 299.552 -17.66 296.112C-19.18 292.672 -19.94 288.912 -19.94 284.832C-19.94 282.112 -19.66 279.712 -19.1 277.632C-18.54 275.552 -17.82 273.712 -16.94 272.112C-16.06 270.512 -15.14 269.152 -14.18 268.032C-13.14 266.912 -12.14 265.992 -11.18 265.272V264.912H-45.86V250.512H39.1ZM10.3 298.272C12.54 298.272 14.7 297.872 16.78 297.072C18.86 296.352 20.7 295.232 22.3 293.712C23.9 292.272 25.18 290.512 26.14 288.432C27.1 286.352 27.58 283.992 27.58 281.352C27.58 278.712 27.1 276.352 26.14 274.272C25.18 272.192 23.9 270.392 22.3 268.872C20.7 267.432 18.86 266.312 16.78 265.512C14.7 264.792 12.54 264.432 10.3 264.432C8.06 264.432 5.9 264.792 3.82 265.512C1.74 266.312 -0.0999991 267.432 -1.7 268.872C-3.3 270.392 -4.58 272.192 -5.54 274.272C-6.5 276.352 -6.98 278.712 -6.98 281.352C-6.98 283.992 -6.5 286.352 -5.54 288.432C-4.58 290.512 -3.3 292.272 -1.7 293.712C-0.0999991 295.232 1.74 296.352 3.82 297.072C5.9 297.872 8.06 298.272 10.3 298.272ZM-10.58 362.098V361.738C-13.86 359.658 -16.26 357.018 -17.78 353.818C-19.22 350.618 -19.94 347.098 -19.94 343.258C-19.94 340.618 -19.58 338.018 -18.86 335.458C-18.14 332.978 -17.06 330.738 -15.62 328.738C-14.18 326.818 -12.38 325.258 -10.22 324.058C-8.06 322.858 -5.54 322.258 -2.66 322.258C0.46 322.258 3.1 322.818 5.26 323.938C7.5 325.058 9.34 326.538 10.78 328.378C12.3 330.298 13.5 332.498 14.38 334.978C15.26 337.458 15.9 340.018 16.3 342.658C16.78 345.378 17.06 348.098 17.14 350.818C17.3 353.538 17.38 356.098 17.38 358.498V362.098H18.94C22.54 362.098 25.22 360.858 26.98 358.378C28.82 355.898 29.74 352.738 29.74 348.898C29.74 345.858 29.18 343.018 28.06 340.378C27.02 337.738 25.58 335.458 23.74 333.538L31.3 325.978C34.58 329.178 36.94 332.898 38.38 337.138C39.82 341.458 40.54 345.898 40.54 350.458C40.54 354.538 40.06 357.978 39.1 360.778C38.22 363.578 37.06 365.898 35.62 367.738C34.18 369.578 32.5 370.978 30.58 371.938C28.74 372.978 26.86 373.698 24.94 374.098C23.02 374.578 21.14 374.858 19.3 374.938C17.54 375.018 15.98 375.058 14.62 375.058H-18.5V362.098H-10.58ZM7.3 361.258V358.258C7.3 356.258 7.22 354.018 7.06 351.538C6.9 349.058 6.5 346.698 5.86 344.458C5.3 342.298 4.42 340.458 3.22 338.938C2.1 337.418 0.500001 336.658 -1.58 336.658C-2.94 336.658 -4.1 336.938 -5.06 337.498C-5.94 338.138 -6.7 338.938 -7.34 339.898C-7.98 340.858 -8.46 341.938 -8.78 343.138C-9.02 344.338 -9.14 345.538 -9.14 346.738C-9.14 351.698 -7.98 355.338 -5.66 357.658C-3.26 360.058 -0.0199989 361.258 4.06 361.258H7.3ZM23.14 421.271C27.06 418.471 29.02 414.711 29.02 409.991C29.02 408.071 28.54 406.191 27.58 404.351C26.62 402.511 25.06 401.591 22.9 401.591C21.14 401.591 19.86 402.351 19.06 403.871C18.26 405.391 17.58 407.311 17.02 409.631C16.46 411.951 15.86 414.431 15.22 417.071C14.66 419.791 13.74 422.311 12.46 424.631C11.26 426.951 9.58 428.871 7.42 430.391C5.26 431.911 2.3 432.671 -1.46 432.671C-4.9 432.671 -7.82 431.911 -10.22 430.391C-12.54 428.951 -14.42 427.031 -15.86 424.631C-17.3 422.311 -18.34 419.671 -18.98 416.711C-19.62 413.751 -19.94 410.791 -19.94 407.831C-19.94 403.351 -19.3 399.231 -18.02 395.471C-16.74 391.711 -14.42 388.351 -11.06 385.391L-2.06 394.991C-4.14 396.831 -5.86 398.791 -7.22 400.871C-8.5 403.031 -9.14 405.631 -9.14 408.671C-9.14 409.711 -9.02 410.791 -8.78 411.911C-8.54 413.031 -8.14 414.071 -7.58 415.031C-7.02 415.991 -6.34 416.751 -5.54 417.311C-4.66 417.951 -3.66 418.271 -2.54 418.271C-0.539999 418.271 0.940001 417.511 1.9 415.991C2.86 414.471 3.62 412.551 4.18 410.231C4.82 407.911 5.38 405.391 5.86 402.671C6.42 400.031 7.26 397.551 8.38 395.231C9.58 392.911 11.22 390.991 13.3 389.471C15.38 387.951 18.26 387.191 21.94 387.191C25.14 387.191 27.9 387.831 30.22 389.111C32.62 390.471 34.58 392.231 36.1 394.391C37.62 396.551 38.74 399.031 39.46 401.831C40.18 404.631 40.54 407.471 40.54 410.351C40.54 414.191 39.86 417.991 38.5 421.751C37.22 425.511 34.98 428.551 31.78 430.871L23.14 421.271ZM23.14 474.591C27.06 471.791 29.02 468.031 29.02 463.311C29.02 461.391 28.54 459.511 27.58 457.671C26.62 455.831 25.06 454.911 22.9 454.911C21.14 454.911 19.86 455.671 19.06 457.191C18.26 458.711 17.58 460.631 17.02 462.951C16.46 465.271 15.86 467.751 15.22 470.391C14.66 473.111 13.74 475.631 12.46 477.951C11.26 480.271 9.58 482.191 7.42 483.711C5.26 485.231 2.3 485.991 -1.46 485.991C-4.9 485.991 -7.82 485.231 -10.22 483.711C-12.54 482.271 -14.42 480.351 -15.86 477.951C-17.3 475.631 -18.34 472.991 -18.98 470.031C-19.62 467.071 -19.94 464.111 -19.94 461.151C-19.94 456.671 -19.3 452.551 -18.02 448.791C-16.74 445.031 -14.42 441.671 -11.06 438.711L-2.06 448.311C-4.14 450.151 -5.86 452.111 -7.22 454.191C-8.5 456.351 -9.14 458.951 -9.14 461.991C-9.14 463.031 -9.02 464.111 -8.78 465.231C-8.54 466.351 -8.14 467.391 -7.58 468.351C-7.02 469.311 -6.34 470.071 -5.54 470.631C-4.66 471.271 -3.66 471.591 -2.54 471.591C-0.539999 471.591 0.940001 470.831 1.9 469.311C2.86 467.791 3.62 465.871 4.18 463.551C4.82 461.231 5.38 458.711 5.86 455.991C6.42 453.351 7.26 450.871 8.38 448.551C9.58 446.231 11.22 444.311 13.3 442.791C15.38 441.271 18.26 440.511 21.94 440.511C25.14 440.511 27.9 441.151 30.22 442.431C32.62 443.791 34.58 445.551 36.1 447.711C37.62 449.871 38.74 452.351 39.46 455.151C40.18 457.951 40.54 460.791 40.54 463.671C40.54 467.511 39.86 471.311 38.5 475.071C37.22 478.831 34.98 481.871 31.78 484.191L23.14 474.591Z" fill="#646464" fill-opacity="0.05"/>
</g>
<defs>
<clipPath id="clip0">
<rect width="245" height="568" fill="white"/>
</clipPath>
</defs>
</svg>
